HIERARCHY
ROOT hip
{
  OFFSET 0 0 0
  CHANNELS 6 Xposition Yposition Zposition Zrotation Yrotation Xrotation
  JOINT abdomen
  {
    OFFSET 0 20.6881 -0.73152
    CHANNELS 3 Zrotation Xrotation Yrotation
    JOINT chest
    {
      OFFSET 0 11.7043 -0.48768
      CHANNELS 3 Zrotation Xrotation Yrotation
      JOINT neck
      {
        OFFSET 0 22.1894 -2.19456
        CHANNELS 3 Zrotation Xrotation Yrotation
        JOINT head
        {
          OFFSET -0.24384 7.07133 1.2192
          CHANNELS 3 Zrotation Xrotation Yrotation
          JOINT leftEye
          {
            OFFSET 4.14528 8.04674 8.04672
            CHANNELS 3 Zrotation Xrotation Yrotation
            End Site
            {
              OFFSET 1 0 0
            }
          }
          JOINT rightEye
          {
            OFFSET -3.6576 8.04674 8.04672
            CHANNELS 3 Zrotation Xrotation Yrotation
            End Site
            {
              OFFSET 1 0 0
            }
          }
        }
      }
      JOINT rCollar
      {
        OFFSET -2.68224 19.2634 -4.8768
        CHANNELS 3 Zrotation Xrotation Yrotation
        JOINT rShldr
        {
          OFFSET -8.77824 -1.95073 1.46304
          CHANNELS 3 Zrotation Xrotation Yrotation
          JOINT rForeArm
          {
            OFFSET -28.1742 -1.7115 0.48768
            CHANNELS 3 Zrotation Xrotation Yrotation
            JOINT rHand
            {
              OFFSET -22.5879 0.773209 7.07136
              CHANNELS 3 Zrotation Xrotation Yrotation
              JOINT rThumb1
              {
                OFFSET -1.2192 -0.487915 3.41376
                CHANNELS 3 Zrotation Xrotation Yrotation
                JOINT rThumb2
                {
                  OFFSET -3.37035 -0.52449 3.41376
                  CHANNELS 3 Zrotation Xrotation Yrotation
                  End Site
                  {
                    OFFSET -1.78271 -1.18214 1.43049
                  }
                }
              }
              JOINT rIndex1
              {
                OFFSET -7.75947 0.938293 5.60832
                CHANNELS 3 Zrotation Xrotation Yrotation
                JOINT rIndex2
                {
                  OFFSET -2.54057 -0.884171 1.56538
                  CHANNELS 3 Zrotation Xrotation Yrotation
                  End Site
                  {
                    OFFSET -1.62519 -0.234802 1.16502
                  }
                }
              }
              JOINT rMid1
              {
                OFFSET -8.24714 1.18213 3.41376
                CHANNELS 3 Zrotation Xrotation Yrotation
                JOINT rMid2
                {
                  OFFSET -3.10165 -0.590103 1.0647
                  CHANNELS 3 Zrotation Xrotation Yrotation
                  End Site
                  {
                    OFFSET -2.48547 -0.328903 0.83742
                  }
                }
              }
              JOINT rRing1
              {
                OFFSET -8.82822 0.546677 1.51678
                CHANNELS 3 Zrotation Xrotation Yrotation
                JOINT rRing2
                {
                  OFFSET -2.60934 -0.819778 -0.0198488
                  CHANNELS 3 Zrotation Xrotation Yrotation
                  End Site
                  {
                    OFFSET -2.33842 -0.294052 0.168128
                  }
                }
              }
              JOINT rPinky1
              {
                OFFSET -8.27202 -0.0477905 -0.4584
                CHANNELS 3 Zrotation Xrotation Yrotation
                JOINT rPinky2
                {
                  OFFSET -1.82734 -0.647385 -0.700984
                  CHANNELS 3 Zrotation Xrotation Yrotation
                  End Site
                  {
                    OFFSET -1.69225 -0.51767 -0.607171
                  }
                }
              }
            }
          }
        }
      }
      JOINT lCollar
      {
        OFFSET 2.68224 19.2634 -4.8768
        CHANNELS 3 Zrotation Xrotation Yrotation
        JOINT lShldr
        {
          OFFSET 8.77824 -1.95073 1.46304
          CHANNELS 3 Zrotation Xrotation Yrotation
          JOINT lForeArm
          {
            OFFSET 28.1742 -1.7115 0.48768
            CHANNELS 3 Zrotation Xrotation Yrotation
            JOINT lHand
            {
              OFFSET 22.5879 0.773209 7.07136
              CHANNELS 3 Zrotation Xrotation Yrotation
              JOINT lThumb1
              {
                OFFSET 1.2192 -0.487915 3.41376
                CHANNELS 3 Zrotation Xrotation Yrotation
                JOINT lThumb2
                {
                  OFFSET 3.37035 -0.52449 3.41376
                  CHANNELS 3 Zrotation Xrotation Yrotation
                  End Site
                  {
                    OFFSET 1.78271 -1.18214 1.43049
                  }
                }
              }
              JOINT lIndex1
              {
                OFFSET 7.75947 0.938293 5.60832
                CHANNELS 3 Zrotation Xrotation Yrotation
                JOINT lIndex2
                {
                  OFFSET 2.54057 -0.884171 1.56538
                  CHANNELS 3 Zrotation Xrotation Yrotation
                  End Site
                  {
                    OFFSET 1.62519 -0.234802 1.16502
                  }
                }
              }
              JOINT lMid1
              {
                OFFSET 8.24714 1.18213 3.41376
                CHANNELS 3 Zrotation Xrotation Yrotation
                JOINT lMid2
                {
                  OFFSET 3.10165 -0.590103 1.0647
                  CHANNELS 3 Zrotation Xrotation Yrotation
                  End Site
                  {
                    OFFSET 2.48547 -0.328903 0.83742
                  }
                }
              }
              JOINT lRing1
              {
                OFFSET 8.82822 0.546677 1.51678
                CHANNELS 3 Zrotation Xrotation Yrotation
                JOINT lRing2
                {
                  OFFSET 2.60934 -0.819778 -0.0198488
                  CHANNELS 3 Zrotation Xrotation Yrotation
                  End Site
                  {
                    OFFSET 2.33842 -0.294052 0.168128
                  }
                }
              }
              JOINT lPinky1
              {
                OFFSET 8.27202 -0.0477905 -0.4584
                CHANNELS 3 Zrotation Xrotation Yrotation
                JOINT lPinky2
                {
                  OFFSET 1.82734 -0.647385 -0.700984
                  CHANNELS 3 Zrotation Xrotation Yrotation
                  End Site
                  {
                    OFFSET 1.69225 -0.51767 -0.607171
                  }
                }
              }
            }
          }
        }
      }
    }
  }
  JOINT rButtock
  {
    OFFSET -8.77824 4.35084 1.2192
    CHANNELS 3 Zrotation Xrotation Yrotation
    JOINT rThigh
    {
      OFFSET 0 -1.70687 -2.19456
      CHANNELS 3 Zrotation Xrotation Yrotation
      JOINT rShin
      {
        OFFSET 0 -36.8199 0.73152
        CHANNELS 3 Zrotation Xrotation Yrotation
        JOINT rFoot
        {
          OFFSET 0.73152 -45.1104 -5.12064
          CHANNELS 3 Zrotation Xrotation Yrotation
          End Site
          {
            OFFSET -1.1221 -3.69964 12.103
          }
        }
      }
    }
  }
  JOINT lButtock
  {
    OFFSET 8.77824 4.35084 1.2192
    CHANNELS 3 Zrotation Xrotation Yrotation
    JOINT lThigh
    {
      OFFSET 0 -1.70687 -2.19456
      CHANNELS 3 Zrotation Xrotation Yrotation
      JOINT lShin
      {
        OFFSET 0 -36.8199 0.73152
        CHANNELS 3 Zrotation Xrotation Yrotation
        JOINT lFoot
        {
          OFFSET -0.73152 -45.1104 -5.12064
          CHANNELS 3 Zrotation Xrotation Yrotation
          End Site
          {
            OFFSET 1.1221 -3.69964 12.103
          }
        }
      }
    }
  }
}
MOTION
Frames:	6
Frame Time:	0.00833333
50.9059 84.5817 -186.822 0.0 0.0 0.0 -0.682894 -0.00338882 -0.0193343 -0.188277 -0.00482719 -0.0326215 9.79551e-15 0.0 9.93924e-17 2.97245e-14 3.18055e-15 2.842e-16 -0.0 0.0 0.0 -0.0 0.0 0.0 5.06785e-15 5.82377e-19 1.98785e-16 1.05759e-13 -1.55301e-16 2.5842e-15 1.79488e-12 -5.39502e-13 -2.22639e-14 2.0517e-11 5.28519e-13 2.83069e-13 4.84012e-11 -2.20784e-14 5.88403e-13 8.35746e-11 -3.81667e-14 1.00744e-12 4.84068e-11 -1.90833e-14 5.85222e-13 7.73091 5.47488 0.417314 4.8402e-11 -2.14687e-14 5.85222e-13 2.90554 0.965183 0.102902 4.84123e-11 -2.20651e-14 5.86812e-13 10.2786 0.731801 0.0259123 4.83955e-11 -2.10712e-14 5.91583e-13 2.22167 -0.733487 -0.20892 4.97109e-15 2.71776e-18 -9.93923e-17 1.0223e-13 -2.54693e-16 7.95139e-16 1.79433e-12 5.34333e-13 1.59028e-14 2.05286e-11 -5.48795e-13 2.57625e-13 4.84261e-11 -2.99474e-14 5.82042e-13 8.36414e-11 -5.40694e-14 1.01619e-12 4.84212e-11 -3.02153e-14 5.88403e-13 -7.73091 5.47488 -0.417314 4.84262e-11 -3.02153e-14 5.82042e-13 -2.90554 0.965183 -0.102902 4.84228e-11 -2.96189e-14 5.88403e-13 -10.2786 0.731801 -0.0259123 4.84259e-11 -2.94201e-14 5.85222e-13 -2.22167 -0.733487 0.20892 -2.03217e-16 0.0 -3.88251e-19 0.00848208 -2.18958 -0.0196917 -0.00876031 -1.58609 -0.074254 -0.525682 3.77549 0.13774 2.03217e-16 0.0 3.88251e-19 -1.04621 -4.79242 0.0872106 0.00157731 3.12849 0.00159336 0.533025 1.66389 -0.0950804
49.3939 83.1678 -187.607 -7.3902 1.4652 3.1551 2.49661 1.95208 0.818013 -0.238679 -0.339809 0.253784 -2.61438 0.201331 -0.795966 1.68411 2.35238 -0.984974 -0.0 0.0 0.0 -0.0 0.0 0.0 -6.15236e-14 -4.2775e-14 2.73834e-15 19.5953 5.28192 3.00526 -4.76132 -2.28334 7.30201 0.0153673 -2.7505 -0.384951 4.50297e-10 -6.62933e-10 2.71509e-10 7.75831e-10 -1.14291e-09 4.7193e-10 4.50303e-10 -6.6293e-10 2.71501e-10 7.73091 5.47488 0.417314 4.50298e-10 -6.62933e-10 2.71505e-10 2.90554 0.965183 0.102902 4.50309e-10 -6.62933e-10 2.71506e-10 10.2786 0.731801 0.0259123 4.50293e-10 -6.62933e-10 2.71512e-10 2.22167 -0.733487 -0.20892 -6.15701e-14 -4.27743e-14 2.44016e-15 -22.4857 7.03404 0.48541 5.97004 -3.18448 -8.75568 -0.00139582 -0.834258 0.117203 5.17566e-10 1.4135e-10 8.79506e-11 8.93477e-10 2.4367e-10 1.52435e-10 5.17562e-10 1.41352e-10 8.79579e-11 -7.73091 5.47488 -0.417314 5.17568e-10 1.41352e-10 8.79506e-11 -2.90554 0.965183 -0.102902 5.17563e-10 1.41353e-10 8.79562e-11 -10.2786 0.731801 -0.0259123 5.17566e-10 1.41353e-10 8.79522e-11 -2.22167 -0.733487 0.20892 -2.03217e-16 0.0 -3.88251e-19 3.24495 -1.91948 -1.3199 -0.00637269 3.53959 0.0143073 -0.523774 -0.771491 -0.111082 2.03217e-16 0.0 3.88251e-19 1.4855 -14.6881 1.20294 0.0385097 11.8846 -0.0749934 0.391605 -0.699209 -1.26058
49.2928 83.1985 -187.052 -7.4793 1.2189 3.2855 5.78509 4.02331 1.69502 -0.278605 -0.693506 0.553463 -5.38156 0.41325 -1.63976 3.56013 4.83679 -2.03418 -0.0 0.0 0.0 -0.0 0.0 0.0 -1.37638e-13 -9.2334e-14 5.7865e-15 39.6943 10.8055 6.26207 -9.16713 -4.57336 15.0579 -0.00876441 -5.66107 -0.795323 9.07186e-10 -1.42543e-09 5.88834e-10 1.56277e-09 -2.45744e-09 1.02342e-09 9.07193e-10 -1.42542e-09 5.8882e-10 7.73091 5.47488 0.417314 9.07187e-10 -1.42543e-09 5.88829e-10 2.90554 0.965183 0.102902 9.072e-10 -1.42543e-09 5.88828e-10 10.2786 0.731801 0.0259123 9.07183e-10 -1.42543e-09 5.88835e-10 2.22167 -0.733487 -0.20892 -1.37626e-13 -9.23348e-14 5.48832e-15 -46.39 14.472 1.01814 11.2486 -6.31494 -18.1167 0.000864229 -1.72722 0.24274 1.04382e-09 2.85449e-10 1.77357e-10 1.80185e-09 4.91995e-10 3.07392e-10 1.04382e-09 2.85455e-10 1.77366e-10 -7.73091 5.47488 -0.417314 1.04382e-09 2.85453e-10 1.77358e-10 -2.90554 0.965183 -0.102902 1.04382e-09 2.85455e-10 1.77362e-10 -10.2786 0.731801 -0.0259123 1.04382e-09 2.85455e-10 1.77358e-10 -2.22167 -0.733487 0.20892 -2.03217e-16 0.0 -3.88251e-19 6.67411 -1.67822 -2.69518 -0.0212531 9.01021 0.110527 -0.569694 -5.59184 -0.402507 2.03217e-16 0.0 3.88251e-19 4.61393 -25.1197 2.54011 0.105334 21.2272 -0.165911 0.139524 -3.19376 -2.47826
49.2874 83.2243 -186.458 -7.356 1.0822 3.3843 8.68345 5.85806 2.50437 -0.329435 -1.00968 0.826709 -7.82637 0.603528 -2.38802 5.29644 7.04877 -2.97494 -0.0 0.0 0.0 -0.0 0.0 0.0 -1.94707e-13 -1.28326e-13 7.81744e-15 57.077 15.6681 9.32696 -12.5761 -6.40594 22.0333 -0.0657552 -8.25001 -1.16559 1.25409e-09 -1.98875e-09 8.13352e-10 2.16034e-09 -3.42864e-09 1.41378e-09 1.2541e-09 -1.98875e-09 8.13332e-10 7.73091 5.47488 0.417314 1.25409e-09 -1.98875e-09 8.13346e-10 2.90554 0.965183 0.102902 1.2541e-09 -1.98875e-09 8.13343e-10 10.2786 0.731801 0.0259123 1.25409e-09 -1.98876e-09 8.13351e-10 2.22167 -0.733487 -0.20892 -1.94652e-13 -1.28328e-13 7.51926e-15 -67.8365 21.0958 1.54912 15.0764 -8.66271 -26.5523 0.00606006 -2.50273 0.351908 1.45585e-09 4.24109e-10 2.62688e-10 2.51315e-09 7.31119e-10 4.55273e-10 1.45584e-09 4.24117e-10 2.62697e-10 -7.73091 5.47488 -0.417314 1.45585e-09 4.24115e-10 2.62688e-10 -2.90554 0.965183 -0.102902 1.45584e-09 4.24118e-10 2.62692e-10 -10.2786 0.731801 -0.0259123 1.45585e-09 4.24117e-10 2.62686e-10 -2.22167 -0.733487 0.20892 -2.03217e-16 0.0 -3.88251e-19 9.75466 -1.37758 -3.91927 -0.0500116 13.7909 0.196969 -0.63936 -9.86493 -0.617224 2.03217e-16 0.0 3.88251e-19 7.92462 -34.4228 4.02226 0.191697 29.3967 -0.256346 -0.180451 -5.41522 -3.6075
49.2876 83.2636 -185.859 -7.1932 0.8649 3.5477 10.7253 7.10608 3.13365 -0.414416 -1.23213 1.03376 -9.47704 0.740153 -2.89734 6.50972 8.58776 -3.62543 -0.0 0.0 0.0 -0.0 0.0 0.0 -2.04162e-13 -1.30401e-13 7.30534e-15 68.88 19.0444 11.6204 -14.6817 -7.51784 26.936 -0.125157 -10.0363 -1.42527 1.32602e-09 -2.05416e-09 8.05851e-10 2.28448e-09 -3.54153e-09 1.40132e-09 1.32603e-09 -2.05416e-09 8.05829e-10 7.73091 5.47488 0.417314 1.32603e-09 -2.05417e-09 8.05844e-10 2.90554 0.965183 0.102902 1.32604e-09 -2.05417e-09 8.05842e-10 10.2786 0.731801 0.0259123 1.32602e-09 -2.05417e-09 8.05851e-10 2.22167 -0.733487 -0.20892 -2.04105e-13 -1.30404e-13 7.00716e-15 -82.8699 25.6903 1.98992 17.2676 -9.92038 -32.3971 0.0109378 -2.98464 0.419848 1.5823e-09 5.4917e-10 3.37826e-10 2.73175e-09 9.47242e-10 5.85468e-10 1.5823e-09 5.4918e-10 3.37835e-10 -7.73091 5.47488 -0.417314 1.58231e-09 5.49177e-10 3.37826e-10 -2.90554 0.965183 -0.102902 1.5823e-09 5.4918e-10 3.37829e-10 -10.2786 0.731801 -0.0259123 1.5823e-09 5.4918e-10 3.37823e-10 -2.22167 -0.733487 0.20892 -2.03217e-16 0.0 -3.88251e-19 11.9474 -0.929942 -4.76601 -0.0769626 16.8467 0.252361 -0.662498 -12.7708 -0.62606 2.03217e-16 0.0 3.88251e-19 10.6703 -40.9554 5.34921 0.26247 34.6339 -0.316682 -0.473165 -6.96326 -4.49918
49.1757 83.2129 -185.261 -7.5424 0.6255 3.6808 11.6338 7.54171 3.50549 -0.580839 -1.32853 1.14875 -9.99569 0.798581 -3.07117 6.90051 9.18664 -3.8594 -0.0 0.0 0.0 -0.0 0.0 0.0 -1.28031e-13 -7.37734e-14 1.97503e-15 73.4664 20.4509 12.6341 -15.4437 -7.904 28.8525 -0.15173 -10.6951 -1.52216 9.0523e-10 -1.22856e-09 3.86045e-10 1.56016e-09 -2.11838e-09 6.73034e-10 9.05239e-10 -1.22856e-09 3.86023e-10 7.73091 5.47488 0.417314 9.05233e-10 -1.22856e-09 3.86039e-10 2.90554 0.965183 0.102902 9.05246e-10 -1.22856e-09 3.86038e-10 10.2786 0.731801 0.0259123 9.05231e-10 -1.22856e-09 3.86047e-10 2.22167 -0.733487 -0.20892 -1.28042e-13 -7.37746e-14 1.67686e-15 -88.7552 27.4419 2.22573 17.9481 -10.233 -34.4701 0.0120103 -3.04336 0.428144 1.21091e-09 6.67914e-10 4.0019e-10 2.09146e-09 1.15337e-09 6.93512e-10 1.21091e-09 6.67922e-10 4.00199e-10 -7.73091 5.47488 -0.417314 1.21092e-09 6.67919e-10 4.00189e-10 -2.90554 0.965183 -0.102902 1.21091e-09 6.67922e-10 4.00191e-10 -10.2786 0.731801 -0.0259123 1.21091e-09 6.67922e-10 4.00184e-10 -2.22167 -0.733487 0.20892 -2.03217e-16 0.0 -3.88251e-19 12.8982 -0.269288 -5.06984 -0.0848923 17.4718 0.258332 -0.577271 -13.761 -0.338541 2.03217e-16 0.0 3.88251e-19 11.9874 -43.6464 6.04611 0.275248 35.6994 -0.310331 -0.644959 -7.58836 -5.07354
